<?xml version="1.0" encoding="UTF-8" standalone="no"?>
<!-- Created with Inkscape (http://www.inkscape.org/) -->

<svg
   width="200.0mm"
   height="200.0mm"
   viewBox="0 0 200.0 200.0"
   version="1.1"
   id="svg1"
   xml:space="preserve"
   inkscape:version="1.3.2 (091e20e, 2023-11-25, custom)"
   sodipodi:docname="EA3_V3_kicad.svg"
   xmlns:inkscape="http://www.inkscape.org/namespaces/inkscape"
   xmlns:sodipodi="http://sodipodi.sourceforge.net/DTD/sodipodi-0.dtd"
   xmlns="http://www.w3.org/2000/svg"
   xmlns:svg="http://www.w3.org/2000/svg"><sodipodi:namedview
     id="namedview1"
     pagecolor="#ffffff"
     bordercolor="#000000"
     borderopacity="0.25"
     inkscape:showpageshadow="2"
     inkscape:pageopacity="0.0"
     inkscape:pagecheckerboard="0"
     inkscape:deskcolor="#d1d1d1"
     inkscape:document-units="mm"
     showguides="true"
     inkscape:zoom="1.4142136"
     inkscape:cx="368.04907"
     inkscape:cy="332.34018"
     inkscape:window-width="2560"
     inkscape:window-height="1374"
     inkscape:window-x="-8"
     inkscape:window-y="-8"
     inkscape:window-maximized="1"
     inkscape:current-layer="g7"
     showgrid="false" /><defs
     id="defs1" /><g
     inkscape:label="Capa 1"
     inkscape:groupmode="layer"
     id="layer1" /><g
     inkscape:label="[fixed] BG"
     inkscape:groupmode="layer"
     sodipodi:insensitive="true"
     id="g5"><rect
       x="0"
       y="0"
       width="200"
       height="200"
       style="fill:#ffffff;fill-opacity:1;stroke:none"
       id="rect5" /></g><g
     inkscape:label="Edge.Cuts"
     inkscape:groupmode="layer"
     id="g6"><rect
       style="fill:#000000;fill-opacity:0;stroke:#000000;stroke-width:0.1;stroke-miterlimit:0;stroke-dasharray:none;stroke-opacity:1"
       id="rect25"
       width="150"
       height="100"
       x="21.560417"
       y="46.731377" /></g><g
     inkscape:label="F.Cu"
     inkscape:groupmode="layer"
     id="g7"><rect
       style="fill:#ffffff;fill-opacity:1;stroke:#000000;stroke-width:0;stroke-dasharray:none;stroke-opacity:1"
       id="rect9-1"
       width="1"
       height="8.1499996"
       x="43.203724"
       y="74.419914" /><rect
       style="fill:#000000;fill-opacity:1;stroke:#000000;stroke-width:0;stroke-dasharray:none;stroke-opacity:1"
       id="rect10-23"
       width="2"
       height="8.1499996"
       x="41.203724"
       y="74.419914" /><rect
       style="fill:#ffffff;fill-opacity:1;stroke:#000000;stroke-width:0;stroke-dasharray:none;stroke-opacity:1"
       id="rect9-5-1"
       width="1"
       height="8.1499996"
       x="40.203724"
       y="74.419914" /><rect
       style="fill:#000000;fill-opacity:1;stroke:#000000;stroke-width:0;stroke-dasharray:none;stroke-opacity:1"
       id="rect10-2-4"
       width="2"
       height="8.1499996"
       x="38.203724"
       y="74.419914" /><rect
       style="fill:#ffffff;fill-opacity:1;stroke:#000000;stroke-width:0;stroke-dasharray:none;stroke-opacity:1"
       id="rect9-5-3-5"
       width="1"
       height="8.1499996"
       x="37.203724"
       y="74.419914" /><rect
       style="fill:#000000;fill-opacity:1;stroke:#000000;stroke-width:0;stroke-dasharray:none;stroke-opacity:1"
       id="rect10-2-8-3"
       width="2"
       height="8.1499996"
       x="35.203724"
       y="74.419914" /><rect
       style="fill:#ffffff;fill-opacity:1;stroke:#000000;stroke-width:0;stroke-dasharray:none;stroke-opacity:1"
       id="rect9-59-8"
       width="1"
       height="8.1499996"
       x="-121.00056"
       y="68.452553"
       transform="scale(-1,1)" /><rect
       style="fill:#000000;fill-opacity:1;stroke:#000000;stroke-width:0;stroke-dasharray:none;stroke-opacity:1"
       id="rect10-7-8"
       width="2"
       height="8.1499996"
       x="-123.00056"
       y="68.452553"
       transform="scale(-1,1)" /><rect
       style="fill:#ffffff;fill-opacity:1;stroke:#000000;stroke-width:0;stroke-dasharray:none;stroke-opacity:1"
       id="rect9-5-5-7"
       width="1"
       height="8.1499996"
       x="-124.00057"
       y="68.452553"
       transform="scale(-1,1)" /><rect
       style="fill:#000000;fill-opacity:1;stroke:#000000;stroke-width:0;stroke-dasharray:none;stroke-opacity:1"
       id="rect10-2-85-5"
       width="2"
       height="8.1499996"
       x="-126.00059"
       y="68.452553"
       transform="scale(-1,1)" /><rect
       style="fill:#ffffff;fill-opacity:1;stroke:#000000;stroke-width:0;stroke-dasharray:none;stroke-opacity:1"
       id="rect9-5-3-7-6"
       width="1"
       height="8.1499996"
       x="-127.00059"
       y="68.452553"
       transform="scale(-1,1)" /><rect
       style="fill:#000000;fill-opacity:1;stroke:#000000;stroke-width:0;stroke-dasharray:none;stroke-opacity:1"
       id="rect10-2-8-9-7"
       width="2"
       height="8.1499996"
       x="-129.00056"
       y="68.452553"
       transform="scale(-1,1)" /><rect
       style="fill:#ffffff;fill-opacity:1;stroke:#000000;stroke-width:0;stroke-miterlimit:0;stroke-dasharray:none;stroke-opacity:1"
       id="rect18-72"
       width="3.3499889"
       height="0.5"
       x="82.349205"
       y="123.98203" /><rect
       style="fill:#000000;fill-opacity:1;stroke:#000000;stroke-width:0;stroke-miterlimit:0;stroke-dasharray:none;stroke-opacity:1"
       id="rect19-1"
       width="3.3499889"
       height="1"
       x="82.34919"
       y="124.48203" /><rect
       style="fill:#ffffff;fill-opacity:1;stroke:#000000;stroke-width:0;stroke-miterlimit:0;stroke-dasharray:none;stroke-opacity:1"
       id="rect21-3"
       width="2"
       height="3.3499999"
       x="36.382404"
       y="102.87231" /><rect
       style="fill:#000000;fill-opacity:1;stroke:#000000;stroke-width:0;stroke-miterlimit:0;stroke-dasharray:none;stroke-opacity:1"
       id="rect22-7"
       width="14.871997"
       height="3.3498139"
       x="21.510401"
       y="102.87251" /><path
       style="fill:#000000;fill-opacity:1;stroke:#000000;stroke-width:0;stroke-miterlimit:0;stroke-dasharray:none;stroke-opacity:1"
       d="m 85.2813,100.72549 c -0.11927,3.16224 1.19447,4.09216 2.2437,5.57697 1.07043,1.51482 1.81383,1.62964 3.11649,1.31067 1.67806,-0.4109 2.09039,-0.61082 2.1558,-2.6312 0.0672,-2.07663 -1.99518,-2.50244 -3.92071,-3.44262 -2.15292,-1.05119 -3.59528,-0.81382 -3.59528,-0.81382 z"
       id="path23-5-8-8" /><rect
       style="fill:#ffffff;fill-opacity:1;stroke:#000000;stroke-width:0;stroke-miterlimit:0;stroke-dasharray:none;stroke-opacity:1"
       id="rect21-5-7"
       width="2"
       height="3.3499999"
       x="-156.64011"
       y="-97.799042"
       transform="scale(-1)" /><rect
       style="fill:#000000;fill-opacity:1;stroke:#000000;stroke-width:0;stroke-miterlimit:0;stroke-dasharray:none;stroke-opacity:1"
       id="rect22-4-6"
       width="14.970288"
       height="3.3498163"
       x="-171.61038"
       y="-97.79895"
       transform="scale(-1)" /><path
       style="fill:#000000;fill-opacity:1;stroke:#000000;stroke-width:0;stroke-miterlimit:0;stroke-dasharray:none;stroke-opacity:1"
       d="m 84.7742,99.28005 c 0.11927,-3.16224 -1.19447,-4.09216 -2.2437,-5.57697 -1.07043,-1.51482 -1.81383,-1.62964 -3.11649,-1.31067 -1.67806,0.4109 -2.09039,0.61082 -2.1558,2.6312 -0.0672,2.07663 1.99518,2.50245 3.92071,3.44262 2.15291,1.05119 3.59528,0.81382 3.59528,0.81382 z"
       id="path23-5-8-6-2" /><rect
       style="fill:#ffffff;fill-opacity:1;stroke:#000000;stroke-width:0;stroke-miterlimit:0;stroke-dasharray:none;stroke-opacity:1"
       id="rect18-3-2"
       width="3.3499889"
       height="0.5"
       x="82.34919"
       y="125.48203" /><rect
       style="fill:#000000;fill-opacity:1;stroke:#000000;stroke-width:0;stroke-miterlimit:0;stroke-dasharray:none;stroke-opacity:1"
       id="rect19-6-1"
       width="3.3499889"
       height="1"
       x="82.349174"
       y="125.98203" /><rect
       style="fill:#ffffff;fill-opacity:1;stroke:#000000;stroke-width:0;stroke-miterlimit:0;stroke-dasharray:none;stroke-opacity:1"
       id="rect18-5-7"
       width="3.3499889"
       height="0.5"
       x="82.349174"
       y="126.98203" /><rect
       style="fill:#000000;fill-opacity:1;stroke:#000000;stroke-width:0;stroke-miterlimit:0;stroke-dasharray:none;stroke-opacity:1"
       id="rect19-4-3"
       width="3.3499889"
       height="1"
       x="82.349159"
       y="127.48203" /><rect
       style="fill:#ffffff;fill-opacity:1;stroke:#000000;stroke-width:0;stroke-miterlimit:0;stroke-dasharray:none;stroke-opacity:1"
       id="rect18-4-1"
       width="3.3499889"
       height="0.5"
       x="103.1986"
       y="113.59375" /><rect
       style="fill:#000000;fill-opacity:1;stroke:#000000;stroke-width:0;stroke-miterlimit:0;stroke-dasharray:none;stroke-opacity:1"
       id="rect19-46-9"
       width="3.3499889"
       height="1"
       x="103.19859"
       y="114.09375" /><rect
       style="fill:#ffffff;fill-opacity:1;stroke:#000000;stroke-width:0;stroke-miterlimit:0;stroke-dasharray:none;stroke-opacity:1"
       id="rect18-7-0"
       width="3.3499889"
       height="0.5"
       x="103.19859"
       y="115.09375" /><rect
       style="fill:#000000;fill-opacity:1;stroke:#000000;stroke-width:0;stroke-miterlimit:0;stroke-dasharray:none;stroke-opacity:1"
       id="rect19-5-8"
       width="3.3499889"
       height="1"
       x="103.19859"
       y="115.59375" /><rect
       style="fill:#ffffff;fill-opacity:1;stroke:#000000;stroke-width:0;stroke-miterlimit:0;stroke-dasharray:none;stroke-opacity:1"
       id="rect18-59-0"
       width="3.3499889"
       height="0.5"
       x="103.19859"
       y="116.59375" /><rect
       style="fill:#000000;fill-opacity:1;stroke:#000000;stroke-width:0;stroke-miterlimit:0;stroke-dasharray:none;stroke-opacity:1"
       id="rect19-0-7"
       width="3.3499889"
       height="1"
       x="103.19859"
       y="117.09377" /><path
       id="rect15-0"
       style="stroke-width:0;stroke-dasharray:none"
       d="m 68.105618,70.146935 h 3 l -2,7.88288 h -1 z m 0,-23.46555 h 3 v 23.46555 h -3 z M 38.3824,102.87242 h 25 v 3.34981 h -25 z m 5.821318,-28.452495 h 19.9019 v 8.15 h -19.9019 z m 23.9019,3.6099 v 1.5 l -4,3.0401 v -8.15 z m 0,-1e-5 h 1 v 22.690005 h -1 z M 82.34921,112.37482 h 3.34999 v 11.6072 h -3.34999 z m 0.92499,-4 h 1.5 l 0.925,4 h -3.35 z m -19.8918,-7.655 h 21.3918 v 7.655 H 63.3824 Z" /><path
       id="path9-5"
       style="stroke:#000000;stroke-width:0;stroke-dasharray:none;stroke-opacity:1"
       d="m 93.09887,46.681265 v 17.49815 l 1.99988,7.88324 V 94.87988 h -9.525 v 4.40024 h 18.54978 l -0.92501,3.99976 v 10.3141 h 3.35019 v -10.3141 l -0.92501,-3.99976 h 24.01662 v -1.48104 h 25.00003 V 94.44889 H 129.64032 V 92.96785 H 105.6237 v 1.91203 H 96.09869 V 73.562305 l 3.99976,3.04013 h 19.90215 v -8.14989 h -19.90215 l -3.99976,3.61011 v -7.88324 -17.49815 z" /><path
       style="fill:#000000;stroke-width:0.166668"
       d="m 151.71675,141.79238 v -4.939 h 9.92184 9.92183 v 4.939 4.939 h -9.92183 -9.92184 z m 9.83364,0 v -4.76261 h -4.80658 -4.80658 v 4.76261 4.76261 h 4.80658 4.80658 z m -5.97515,3.92789 c -0.18579,-0.0448 -0.31778,-0.12113 -0.58457,-0.33788 -0.34686,-0.2818 -0.66158,-0.3863 -1.05805,-0.35129 -0.27898,0.0246 -0.3197,0.019 -0.3197,-0.0445 0,-0.04 0.33975,-0.40761 0.755,-0.81696 l 0.75501,-0.74428 0.18206,0.11277 c 0.95943,0.59428 2.1162,0.47162 2.89746,-0.30726 0.73231,-0.73006 0.86876,-1.99947 0.30477,-2.83517 -0.0748,-0.1108 -0.13007,-0.20763 -0.12286,-0.21518 0.28469,-0.29839 1.64128,-1.65145 1.65577,-1.65145 0.0113,0 0.009,0.0744 -0.006,0.16537 -0.0145,0.091 -0.0389,0.248 -0.0542,0.34899 -0.0473,0.31231 0.0535,0.60072 0.34451,0.9862 0.51771,0.68567 0.52151,1.2423 0.0129,1.87804 -0.26859,0.33569 -0.32996,0.49468 -0.32996,0.85483 0,0.35227 0.0603,0.51861 0.29637,0.81715 0.2745,0.34717 0.30104,0.39813 0.3631,0.69709 0.0872,0.41984 -0.0233,0.78636 -0.33278,1.10457 -0.45646,0.46927 -1.16473,0.49249 -1.70128,0.0558 -0.34274,-0.27897 -0.50399,-0.34897 -0.85646,-0.37184 -0.3721,-0.0241 -0.56956,0.0482 -0.96995,0.35555 -0.39527,0.30338 -0.80352,0.40268 -1.23125,0.29945 z m -2.80016,-4.29504 v -3.64579 h 3.61595 c 2.81989,0 3.61596,0.0119 3.61596,0.0539 0,0.0296 -0.44275,0.49679 -0.98389,1.03808 l -0.9839,0.98417 -0.26185,-0.15771 c -0.75341,-0.45382 -1.71184,-0.44856 -2.42578,0.0133 -0.46386,0.30007 -0.7832,0.72292 -0.96473,1.27741 -0.12178,0.37201 -0.0819,1.08651 0.083,1.48732 0.0699,0.16978 0.1735,0.37007 0.23031,0.44508 l 0.1033,0.1364 -0.89709,0.89991 c -0.4934,0.49495 -0.94978,0.94803 -1.01418,1.00683 l -0.1171,0.10691 z m 10.2212,0.86795 c 0.0144,-0.40617 0.0191,-0.41085 0.41721,-0.412 0.19387,-3.3e-4 0.20946,-0.009 0.20946,-0.11085 0,-0.1071 -0.009,-0.11025 -0.30868,-0.11025 h -0.30868 v -0.22049 -0.22049 h 0.33073 c 0.25611,0 0.33073,-0.0141 0.33073,-0.0625 0,-0.0344 0.012,-0.0939 0.0268,-0.1323 0.0235,-0.0611 -0.0365,-0.0697 -0.48507,-0.0697 h -0.51184 v 0.83052 c 0,0.45679 0.0141,0.84467 0.0314,0.86195 0.0173,0.0173 0.0818,0.0256 0.14331,0.0184 0.10836,-0.0126 0.1123,-0.0244 0.12463,-0.37215 z m 2.10534,0.31727 c 0.13312,-0.0556 0.15292,-0.0838 0.15292,-0.21794 v -0.15404 l -0.18741,0.10716 c -0.24066,0.13761 -0.41832,0.13669 -0.60783,-0.003 -0.20793,-0.15341 -0.25971,-0.26553 -0.26152,-0.56633 -0.002,-0.24266 0.009,-0.2694 0.16963,-0.42996 0.1467,-0.14671 0.19877,-0.17118 0.3638,-0.17104 0.11534,1e-4 0.25119,0.0359 0.33864,0.0892 l 0.14604,0.089 -0.0137,-0.16469 c -0.0128,-0.15328 -0.0275,-0.16883 -0.21218,-0.22425 -0.15242,-0.0457 -0.24808,-0.0486 -0.41252,-0.0124 -0.29584,0.0651 -0.4439,0.18407 -0.58289,0.46815 -0.10039,0.20518 -0.11468,0.27886 -0.0917,0.47272 0.0312,0.26383 0.19525,0.52818 0.42282,0.68155 0.17632,0.11883 0.53761,0.13558 0.77598,0.036 z m 5.48866,-0.77397 v -0.83788 h -0.13229 -0.13229 v 0.51751 0.51749 l -0.55121,-0.54991 -0.55122,-0.54991 v 0.84824 0.84822 h 0.13229 0.1323 v -0.51792 -0.51793 l 0.53996,0.53998 c 0.29698,0.29698 0.54503,0.53998 0.55121,0.53998 0.006,0 0.0112,-0.37704 0.0112,-0.83787 z m -4.05692,0.68352 c 0,-0.10846 -0.006,-0.11024 -0.35498,-0.11024 h -0.35498 l 0.0132,-0.25357 0.0132,-0.25356 0.29765,-0.013 c 0.28148,-0.0123 0.29765,-0.0188 0.29765,-0.11926 0,-0.10044 -0.0162,-0.10692 -0.29765,-0.11926 l -0.29765,-0.013 -0.0134,-0.20946 -0.0134,-0.20947 h 0.35519 c 0.34948,0 0.35519,-0.002 0.35519,-0.11024 v -0.11026 h -0.48506 -0.48507 v 0.81583 0.81581 h 0.48507 0.48506 z m 0.66145,-0.26459 v -0.37483 h 0.30868 c 0.29986,0 0.30868,-0.003 0.30868,-0.11025 0,-0.1071 -0.009,-0.11025 -0.30868,-0.11025 h -0.30868 v -0.22049 -0.22049 h 0.35278 c 0.34689,0 0.35277,-0.002 0.35277,-0.11024 v -0.11026 h -0.48506 -0.48507 v 0.81583 0.81581 h 0.13229 0.13229 z m 1.36701,0.14083 c 0,-0.21009 0.0228,-0.26641 0.22349,-0.55123 0.19063,-0.27057 0.21063,-0.31722 0.13605,-0.31722 -0.054,0 -0.14947,0.0845 -0.24944,0.22069 -0.0891,0.12137 -0.17658,0.21167 -0.1944,0.20065 -0.0178,-0.011 -0.0895,-0.11032 -0.15923,-0.22068 -0.092,-0.14562 -0.15538,-0.20066 -0.23089,-0.20066 -0.11652,0 -0.12015,-0.01 0.1309,0.34907 0.14705,0.21014 0.16713,0.26974 0.16713,0.49611 0,0.22788 0.0101,0.25727 0.0882,0.25727 0.0771,0 0.0882,-0.0294 0.0882,-0.234 z"
       id="path27-1" /><g
       id="g6-8-3-8"
       transform="translate(35.52475,52.331885)"
       style="stroke:#000000;stroke-opacity:1"><rect
         style="fill:#000000;fill-opacity:1;stroke:#000000;stroke-width:0;stroke-dasharray:none;stroke-opacity:1"
         id="rect5-7-0-7"
         width="0.5"
         height="0.57999998"
         x="48.749477"
         y="46.368229" /><rect
         style="fill:#000000;fill-opacity:1;stroke:#000000;stroke-width:0;stroke-dasharray:none;stroke-opacity:1"
         id="rect5-9-2-4-5"
         width="0.5"
         height="0.57999998"
         x="50.049"
         y="46.368229" /><rect
         style="fill:#000000;fill-opacity:1;stroke:#000000;stroke-width:0;stroke-dasharray:none;stroke-opacity:1"
         id="rect5-5-0-2-4"
         width="0.5"
         height="0.57999998"
         x="48.749477"
         y="48.388" /><rect
         style="fill:#000000;fill-opacity:1;stroke:#000000;stroke-width:0;stroke-dasharray:none;stroke-opacity:1"
         id="rect6-2-9-2"
         width="0.80000001"
         height="0.57999998"
         x="49.749001"
         y="48.388" /></g></g><g
     inkscape:label="F.Mask"
     inkscape:groupmode="layer"
     id="g8"><rect
       style="fill:#ffffff;fill-opacity:1;stroke:#000000;stroke-width:0;stroke-dasharray:none;stroke-opacity:1"
       id="rect9"
       width="1"
       height="8.1499996"
       x="43.203716"
       y="74.419914" /><rect
       style="fill:#000000;fill-opacity:1;stroke:#000000;stroke-width:0;stroke-dasharray:none;stroke-opacity:1"
       id="rect10"
       width="2"
       height="8.1499996"
       x="41.203716"
       y="74.419914" /><rect
       style="fill:#ffffff;fill-opacity:1;stroke:#000000;stroke-width:0;stroke-dasharray:none;stroke-opacity:1"
       id="rect9-5"
       width="1"
       height="8.1499996"
       x="40.203716"
       y="74.419914" /><rect
       style="fill:#000000;fill-opacity:1;stroke:#000000;stroke-width:0;stroke-dasharray:none;stroke-opacity:1"
       id="rect10-2"
       width="2"
       height="8.1499996"
       x="38.203716"
       y="74.419914" /><rect
       style="fill:#ffffff;fill-opacity:1;stroke:#000000;stroke-width:0;stroke-dasharray:none;stroke-opacity:1"
       id="rect9-5-3"
       width="1"
       height="8.1499996"
       x="37.203716"
       y="74.419914" /><rect
       style="fill:#000000;fill-opacity:1;stroke:#000000;stroke-width:0;stroke-dasharray:none;stroke-opacity:1"
       id="rect10-2-8"
       width="2"
       height="8.1499996"
       x="35.203716"
       y="74.419914" /><rect
       style="fill:#ffffff;fill-opacity:1;stroke:#000000;stroke-width:0;stroke-dasharray:none;stroke-opacity:1"
       id="rect9-59"
       width="1"
       height="8.1499996"
       x="-121.00056"
       y="68.452553"
       transform="scale(-1,1)" /><rect
       style="fill:#000000;fill-opacity:1;stroke:#000000;stroke-width:0;stroke-dasharray:none;stroke-opacity:1"
       id="rect10-7"
       width="2"
       height="8.1499996"
       x="-123.00056"
       y="68.452553"
       transform="scale(-1,1)" /><rect
       style="fill:#ffffff;fill-opacity:1;stroke:#000000;stroke-width:0;stroke-dasharray:none;stroke-opacity:1"
       id="rect9-5-5"
       width="1"
       height="8.1499996"
       x="-124.00058"
       y="68.452553"
       transform="scale(-1,1)" /><rect
       style="fill:#000000;fill-opacity:1;stroke:#000000;stroke-width:0;stroke-dasharray:none;stroke-opacity:1"
       id="rect10-2-85"
       width="2"
       height="8.1499996"
       x="-126.00058"
       y="68.452553"
       transform="scale(-1,1)" /><rect
       style="fill:#ffffff;fill-opacity:1;stroke:#000000;stroke-width:0;stroke-dasharray:none;stroke-opacity:1"
       id="rect9-5-3-7"
       width="1"
       height="8.1499996"
       x="-127.00059"
       y="68.452553"
       transform="scale(-1,1)" /><rect
       style="fill:#000000;fill-opacity:1;stroke:#000000;stroke-width:0;stroke-dasharray:none;stroke-opacity:1"
       id="rect10-2-8-9"
       width="2"
       height="8.1499996"
       x="-129.00055"
       y="68.452553"
       transform="scale(-1,1)" /><rect
       style="fill:#ffffff;fill-opacity:1;stroke:#000000;stroke-width:0;stroke-miterlimit:0;stroke-dasharray:none;stroke-opacity:1"
       id="rect18"
       width="3.3499889"
       height="0.5"
       x="82.349205"
       y="123.98203" /><rect
       style="fill:#000000;fill-opacity:1;stroke:#000000;stroke-width:0;stroke-miterlimit:0;stroke-dasharray:none;stroke-opacity:1"
       id="rect19"
       width="3.3499889"
       height="1"
       x="82.34919"
       y="124.48203" /><rect
       style="fill:#ffffff;fill-opacity:1;stroke:#000000;stroke-width:0;stroke-miterlimit:0;stroke-dasharray:none;stroke-opacity:1"
       id="rect21"
       width="2"
       height="3.3499999"
       x="36.382397"
       y="102.87232" /><rect
       style="fill:#000000;fill-opacity:1;stroke:#000000;stroke-width:0;stroke-miterlimit:0;stroke-dasharray:none;stroke-opacity:1"
       id="rect22"
       width="14.871997"
       height="3.3498139"
       x="21.510397"
       y="102.87251" /><path
       style="fill:#000000;fill-opacity:1;stroke:#000000;stroke-width:0;stroke-miterlimit:0;stroke-dasharray:none;stroke-opacity:1"
       d="m 85.281291,100.72549 c -0.11927,3.16224 1.194471,4.09216 2.243701,5.57697 1.07043,1.51482 1.81383,1.62964 3.11649,1.31067 1.678062,-0.4109 2.090392,-0.61082 2.155802,-2.6312 0.0672,-2.07663 -1.995181,-2.50244 -3.920712,-3.44262 -2.152914,-1.05119 -3.595281,-0.81382 -3.595281,-0.81382 z"
       id="path23-5-8" /><rect
       style="fill:#ffffff;fill-opacity:1;stroke:#000000;stroke-width:0;stroke-miterlimit:0;stroke-dasharray:none;stroke-opacity:1"
       id="rect21-5"
       width="2"
       height="3.3499999"
       x="-156.64009"
       y="-97.799042"
       transform="scale(-1)" /><rect
       style="fill:#000000;fill-opacity:1;stroke:#000000;stroke-width:0;stroke-miterlimit:0;stroke-dasharray:none;stroke-opacity:1"
       id="rect22-4"
       width="14.970288"
       height="3.3498163"
       x="-171.61037"
       y="-97.798958"
       transform="scale(-1)" /><path
       style="fill:#000000;fill-opacity:1;stroke:#000000;stroke-width:0;stroke-miterlimit:0;stroke-dasharray:none;stroke-opacity:1"
       d="m 84.774195,99.280044 c 0.11927,-3.16224 -1.194471,-4.09216 -2.243701,-5.57697 -1.07043,-1.51482 -1.81383,-1.62964 -3.11649,-1.31067 -1.678062,0.4109 -2.090392,0.61082 -2.155802,2.6312 -0.0672,2.07663 1.995181,2.50245 3.920712,3.44262 2.152914,1.05119 3.595281,0.81382 3.595281,0.81382 z"
       id="path23-5-8-6" /><rect
       style="fill:#ffffff;fill-opacity:1;stroke:#000000;stroke-width:0;stroke-miterlimit:0;stroke-dasharray:none;stroke-opacity:1"
       id="rect18-3"
       width="3.3499889"
       height="0.5"
       x="82.34919"
       y="125.48203" /><rect
       style="fill:#000000;fill-opacity:1;stroke:#000000;stroke-width:0;stroke-miterlimit:0;stroke-dasharray:none;stroke-opacity:1"
       id="rect19-6"
       width="3.3499889"
       height="1"
       x="82.349174"
       y="125.98203" /><rect
       style="fill:#ffffff;fill-opacity:1;stroke:#000000;stroke-width:0;stroke-miterlimit:0;stroke-dasharray:none;stroke-opacity:1"
       id="rect18-5"
       width="3.3499889"
       height="0.5"
       x="82.349174"
       y="126.98203" /><rect
       style="fill:#000000;fill-opacity:1;stroke:#000000;stroke-width:0;stroke-miterlimit:0;stroke-dasharray:none;stroke-opacity:1"
       id="rect19-4"
       width="3.3499889"
       height="1"
       x="82.349159"
       y="127.48203" /><rect
       style="fill:#ffffff;fill-opacity:1;stroke:#000000;stroke-width:0;stroke-miterlimit:0;stroke-dasharray:none;stroke-opacity:1"
       id="rect18-4"
       width="3.3499889"
       height="0.5"
       x="103.1986"
       y="113.59376" /><rect
       style="fill:#000000;fill-opacity:1;stroke:#000000;stroke-width:0;stroke-miterlimit:0;stroke-dasharray:none;stroke-opacity:1"
       id="rect19-46"
       width="3.3499889"
       height="1"
       x="103.19859"
       y="114.09376" /><rect
       style="fill:#ffffff;fill-opacity:1;stroke:#000000;stroke-width:0;stroke-miterlimit:0;stroke-dasharray:none;stroke-opacity:1"
       id="rect18-7"
       width="3.3499889"
       height="0.5"
       x="103.19859"
       y="115.09376" /><rect
       style="fill:#000000;fill-opacity:1;stroke:#000000;stroke-width:0;stroke-miterlimit:0;stroke-dasharray:none;stroke-opacity:1"
       id="rect19-5"
       width="3.3499889"
       height="1"
       x="103.19859"
       y="115.59376" /><rect
       style="fill:#ffffff;fill-opacity:1;stroke:#000000;stroke-width:0;stroke-miterlimit:0;stroke-dasharray:none;stroke-opacity:1"
       id="rect18-59"
       width="3.3499889"
       height="0.5"
       x="103.19859"
       y="116.59376" /><rect
       style="fill:#000000;fill-opacity:1;stroke:#000000;stroke-width:0;stroke-miterlimit:0;stroke-dasharray:none;stroke-opacity:1"
       id="rect19-0"
       width="3.3499889"
       height="1"
       x="103.19859"
       y="117.09377" /><path
       id="rect15"
       style="stroke-width:0;stroke-dasharray:none"
       d="m 68.105613,70.146936 h 3 l -2,7.88288 h -1 z m 0,-23.46555 h 3 v 23.46555 h -3 z M 38.382395,102.87242 h 25 v 3.34981 h -25 z m 5.821318,-28.452494 h 19.9019 v 8.15 h -19.9019 z m 23.9019,3.6099 v 1.5 l -4,3.0401 v -8.15 z m 0,-1e-5 h 1 v 22.690004 h -1 z M 82.3492,112.37482 h 3.34999 v 11.6072 H 82.3492 Z m 0.924995,-4 h 1.5 l 0.925,4 h -3.35 z m -19.8918,-7.655 h 21.3918 v 7.655 h -21.3918 z" /><path
       id="path9"
       style="stroke:#000000;stroke-width:0;stroke-dasharray:none;stroke-opacity:1"
       d="m 93.098863,46.681266 v 17.49815 l 1.99988,7.88324 v 22.817218 h -9.524998 v 4.40024 h 18.549785 l -0.92501,3.999766 v 10.3141 h 3.35019 v -10.3141 l -0.92501,-3.999766 h 24.01662 v -1.48104 h 25.00003 v -3.35019 h -25.00003 v -1.48104 H 105.6237 v 1.91203 H 96.098683 V 73.562306 l 3.999767,3.04013 h 19.90215 v -8.14989 h -19.90215 l -3.999767,3.61011 v -7.88324 -17.49815 z" /><path
       style="fill:#000000;stroke-width:0.166668"
       d="m 151.71675,141.79238 v -4.939 h 9.92184 9.92183 v 4.939 4.939 h -9.92183 -9.92184 z m 9.83364,0 v -4.76261 h -4.80658 -4.80658 v 4.76261 4.76261 h 4.80658 4.80658 z m -5.97515,3.92789 c -0.18579,-0.0448 -0.31778,-0.12113 -0.58457,-0.33788 -0.34686,-0.2818 -0.66158,-0.3863 -1.05805,-0.35129 -0.27898,0.0246 -0.3197,0.019 -0.3197,-0.0445 0,-0.04 0.33975,-0.40761 0.755,-0.81696 l 0.75501,-0.74428 0.18206,0.11277 c 0.95943,0.59428 2.1162,0.47162 2.89746,-0.30726 0.73231,-0.73006 0.86876,-1.99947 0.30477,-2.83517 -0.0748,-0.1108 -0.13007,-0.20763 -0.12286,-0.21518 0.28469,-0.29839 1.64128,-1.65145 1.65577,-1.65145 0.0113,0 0.009,0.0744 -0.006,0.16537 -0.0145,0.091 -0.0389,0.248 -0.0542,0.34899 -0.0473,0.31231 0.0535,0.60072 0.34451,0.9862 0.51771,0.68567 0.52151,1.2423 0.0129,1.87804 -0.26859,0.33569 -0.32996,0.49468 -0.32996,0.85483 0,0.35227 0.0603,0.51861 0.29637,0.81715 0.2745,0.34717 0.30104,0.39813 0.3631,0.69709 0.0872,0.41984 -0.0233,0.78636 -0.33278,1.10457 -0.45646,0.46927 -1.16473,0.49249 -1.70128,0.0558 -0.34274,-0.27897 -0.50399,-0.34897 -0.85646,-0.37184 -0.3721,-0.0241 -0.56956,0.0482 -0.96995,0.35555 -0.39527,0.30338 -0.80352,0.40268 -1.23125,0.29945 z m -2.80016,-4.29504 v -3.64579 h 3.61595 c 2.81989,0 3.61596,0.0119 3.61596,0.0539 0,0.0296 -0.44275,0.49679 -0.98389,1.03808 l -0.9839,0.98417 -0.26185,-0.15771 c -0.75341,-0.45382 -1.71184,-0.44856 -2.42578,0.0133 -0.46386,0.30007 -0.7832,0.72292 -0.96473,1.27741 -0.12178,0.37201 -0.0819,1.08651 0.083,1.48732 0.0699,0.16978 0.1735,0.37007 0.23031,0.44508 l 0.1033,0.1364 -0.89709,0.89991 c -0.4934,0.49495 -0.94978,0.94803 -1.01418,1.00683 l -0.1171,0.10691 z m 10.2212,0.86795 c 0.0144,-0.40617 0.0191,-0.41085 0.41721,-0.412 0.19387,-3.3e-4 0.20946,-0.009 0.20946,-0.11085 0,-0.1071 -0.009,-0.11025 -0.30868,-0.11025 h -0.30868 v -0.22049 -0.22049 h 0.33073 c 0.25611,0 0.33073,-0.0141 0.33073,-0.0625 0,-0.0344 0.012,-0.0939 0.0268,-0.1323 0.0235,-0.0611 -0.0365,-0.0697 -0.48507,-0.0697 h -0.51184 v 0.83052 c 0,0.45679 0.0141,0.84467 0.0314,0.86195 0.0173,0.0173 0.0818,0.0256 0.14331,0.0184 0.10836,-0.0126 0.1123,-0.0244 0.12463,-0.37215 z m 2.10534,0.31727 c 0.13312,-0.0556 0.15292,-0.0838 0.15292,-0.21794 v -0.15404 l -0.18741,0.10716 c -0.24066,0.13761 -0.41832,0.13669 -0.60783,-0.003 -0.20793,-0.15341 -0.25971,-0.26553 -0.26152,-0.56633 -0.002,-0.24266 0.009,-0.2694 0.16963,-0.42996 0.1467,-0.14671 0.19877,-0.17118 0.3638,-0.17104 0.11534,1e-4 0.25119,0.0359 0.33864,0.0892 l 0.14604,0.089 -0.0137,-0.16469 c -0.0128,-0.15328 -0.0275,-0.16883 -0.21218,-0.22425 -0.15242,-0.0457 -0.24808,-0.0486 -0.41252,-0.0124 -0.29584,0.0651 -0.4439,0.18407 -0.58289,0.46815 -0.10039,0.20518 -0.11468,0.27886 -0.0917,0.47272 0.0312,0.26383 0.19525,0.52818 0.42282,0.68155 0.17632,0.11883 0.53761,0.13558 0.77598,0.036 z m 5.48866,-0.77397 v -0.83788 h -0.13229 -0.13229 v 0.51751 0.51749 l -0.55121,-0.54991 -0.55122,-0.54991 v 0.84824 0.84822 h 0.13229 0.1323 v -0.51792 -0.51793 l 0.53996,0.53998 c 0.29698,0.29698 0.54503,0.53998 0.55121,0.53998 0.006,0 0.0112,-0.37704 0.0112,-0.83787 z m -4.05692,0.68352 c 0,-0.10846 -0.006,-0.11024 -0.35498,-0.11024 h -0.35498 l 0.0132,-0.25357 0.0132,-0.25356 0.29765,-0.013 c 0.28148,-0.0123 0.29765,-0.0188 0.29765,-0.11926 0,-0.10044 -0.0162,-0.10692 -0.29765,-0.11926 l -0.29765,-0.013 -0.0134,-0.20946 -0.0134,-0.20947 h 0.35519 c 0.34948,0 0.35519,-0.002 0.35519,-0.11024 v -0.11026 h -0.48506 -0.48507 v 0.81583 0.81581 h 0.48507 0.48506 z m 0.66145,-0.26459 v -0.37483 h 0.30868 c 0.29986,0 0.30868,-0.003 0.30868,-0.11025 0,-0.1071 -0.009,-0.11025 -0.30868,-0.11025 h -0.30868 v -0.22049 -0.22049 h 0.35278 c 0.34689,0 0.35277,-0.002 0.35277,-0.11024 v -0.11026 h -0.48506 -0.48507 v 0.81583 0.81581 h 0.13229 0.13229 z m 1.36701,0.14083 c 0,-0.21009 0.0228,-0.26641 0.22349,-0.55123 0.19063,-0.27057 0.21063,-0.31722 0.13605,-0.31722 -0.054,0 -0.14947,0.0845 -0.24944,0.22069 -0.0891,0.12137 -0.17658,0.21167 -0.1944,0.20065 -0.0178,-0.011 -0.0895,-0.11032 -0.15923,-0.22068 -0.092,-0.14562 -0.15538,-0.20066 -0.23089,-0.20066 -0.11652,0 -0.12015,-0.01 0.1309,0.34907 0.14705,0.21014 0.16713,0.26974 0.16713,0.49611 0,0.22788 0.0101,0.25727 0.0882,0.25727 0.0771,0 0.0882,-0.0294 0.0882,-0.234 z"
       id="path27" /><g
       id="g6-8-3"
       transform="translate(35.524745,52.331886)"
       style="stroke:#000000;stroke-opacity:1"><rect
         style="fill:#000000;fill-opacity:1;stroke:#000000;stroke-width:0;stroke-dasharray:none;stroke-opacity:1"
         id="rect5-7-0"
         width="0.5"
         height="0.57999998"
         x="48.749477"
         y="46.368229" /><rect
         style="fill:#000000;fill-opacity:1;stroke:#000000;stroke-width:0;stroke-dasharray:none;stroke-opacity:1"
         id="rect5-9-2-4"
         width="0.5"
         height="0.57999998"
         x="50.049"
         y="46.368229" /><rect
         style="fill:#000000;fill-opacity:1;stroke:#000000;stroke-width:0;stroke-dasharray:none;stroke-opacity:1"
         id="rect5-5-0-2"
         width="0.5"
         height="0.57999998"
         x="48.749477"
         y="48.388" /><rect
         style="fill:#000000;fill-opacity:1;stroke:#000000;stroke-width:0;stroke-dasharray:none;stroke-opacity:1"
         id="rect6-2-9"
         width="0.80000001"
         height="0.57999998"
         x="49.749001"
         y="48.388" /></g></g><g
     inkscape:label="B.Mask"
     inkscape:groupmode="layer"
     id="g9"><rect
       style="fill:#000000;fill-opacity:0.571072;stroke:#000000;stroke-width:0;stroke-miterlimit:0"
       id="rect11"
       width="150"
       height="100"
       x="21.610416"
       y="46.781387" /></g><g
     inkscape:label="B.Cu"
     inkscape:groupmode="layer"
     id="g11"><rect
       style="fill:#000000;fill-opacity:0.571072;stroke:#000000;stroke-width:0;stroke-miterlimit:0"
       id="rect11-4"
       width="150"
       height="100"
       x="21.560421"
       y="46.731384" /></g></svg>
